<svg width="350" height="79" viewBox="0 0 350 79" fill="none" xmlns="http://www.w3.org/2000/svg">
<path d="M56.7501 53.9826H66.0842L61.3606 29.5655L56.7501 53.9826ZM49.8643 66.6455L58.0687 24.0208H65.1169L73.3272 66.6455H68.5327L66.8715 58.0552H55.9815L54.3597 66.6455H49.8643Z" fill="#591413"/>
<path d="M79.1954 24.0217H83.989L90.9869 61.2003L97.9544 24.0217H102.449L94.4313 66.6464H87.2798L79.1954 24.0217Z" fill="#591413"/>
<path d="M114.304 44.1133L117.84 44.1143C119.878 44.1143 121.401 43.6946 122.41 42.8512C123.419 42.0097 123.924 40.4878 123.924 38.2885V34.1856C123.924 32.2245 123.529 30.7632 122.74 29.8016C121.951 28.8411 120.687 28.3598 118.948 28.3598H114.304V44.1133ZM109.511 24.0217H119.07C122.386 24.0217 124.812 24.8388 126.352 26.4739C127.89 28.108 128.659 30.5406 128.659 33.7708V37.2489C128.659 41.9853 126.88 44.908 123.325 46.0179C125.223 46.5733 126.596 47.5983 127.445 49.0948C128.293 50.5912 128.718 52.528 128.718 54.9059V61.5351C128.718 63.8926 128.989 65.597 129.527 66.6464H124.733C124.193 65.4184 123.924 63.6945 123.924 61.4746V54.7868C123.924 52.4684 123.404 50.8333 122.366 49.8825C121.327 48.9308 119.759 48.4554 117.661 48.4554H114.305V66.6464H109.511V24.0217Z" fill="#591413"/>
<path d="M141.439 56.5997C141.439 58.5823 141.864 60.1032 142.716 61.1623C143.567 62.2224 144.845 62.7515 146.548 62.7515C149.953 62.7515 151.657 60.7016 151.657 56.5997V34.0686C151.657 32.1064 151.236 30.5905 150.395 29.5206C149.554 28.4507 148.271 27.9157 146.549 27.9157C144.845 27.9157 143.568 28.4507 142.717 29.5206C141.865 30.5905 141.44 32.1064 141.44 34.0686L141.439 56.5997ZM136.764 56.3615V34.336C136.764 30.9878 137.591 28.3618 139.247 26.4593C140.902 24.5567 143.336 23.6049 146.548 23.6049C149.789 23.6049 152.249 24.5567 153.93 26.4593C155.611 28.3618 156.45 30.9878 156.45 34.336V56.3615C156.45 59.6707 155.61 62.282 153.93 64.1924C152.249 66.1057 149.789 67.0604 146.548 67.0604C143.356 67.0604 140.928 66.1057 139.262 64.1924C137.597 62.282 136.764 59.6707 136.764 56.3615Z" fill="#591413"/>
<path d="M169.225 44.1143H172.761C174.8 44.1143 176.322 43.6946 177.331 42.8512C178.34 42.0097 178.844 40.4878 178.844 38.2885V34.1856C178.844 32.2245 178.45 30.7632 177.661 29.8016C176.871 28.8411 175.608 28.3598 173.87 28.3598H169.225V44.1143ZM164.43 24.0217H173.99C177.305 24.0217 179.732 24.8388 181.271 26.4739C182.808 28.108 183.579 30.6125 183.579 33.7708V37.2489C183.579 42.0172 181.8 44.908 178.245 46.0179C180.141 46.5733 181.515 47.5983 182.366 49.0948C183.214 50.5912 183.639 52.528 183.639 54.9059V61.5351C183.639 63.8926 183.909 65.597 184.448 66.6464H179.653C179.114 65.4184 178.844 63.6945 178.844 61.4746V54.7868C178.844 52.4684 178.325 50.8333 177.287 49.8825C176.247 48.9308 174.68 48.4554 172.582 48.4554H169.225V66.6464H164.43V24.0217Z" fill="#591413"/>
<path d="M197.701 53.9826H207.035L202.311 29.5655L197.701 53.9826ZM190.815 66.6455L199.02 24.0208H206.068L214.279 66.6455H209.483L207.823 58.0552H196.932L195.31 66.6455H190.815Z" fill="#591413"/>
<path d="M226.168 62.3357H231.382C234.778 62.3357 236.475 60.3238 236.475 56.301V34.3946C236.475 30.3718 234.758 28.3609 231.322 28.3609H226.169L226.168 62.3357ZM221.373 66.6455V24.0208H231.426C234.676 24.0208 237.11 24.9472 238.726 26.8C240.341 28.6528 241.149 31.2631 241.149 34.6319V56.1233C241.149 59.4716 240.341 62.0643 238.726 63.8966C237.11 65.7289 234.676 66.6455 231.426 66.6455H221.373Z" fill="#591413"/>
<path d="M280.731 56.5997C280.731 58.5823 281.156 60.1032 282.009 61.1623C282.86 62.2224 284.137 62.7515 285.841 62.7515C289.247 62.7515 290.949 60.7016 290.949 56.5997V34.0686C290.949 32.1064 290.529 30.5905 289.688 29.5206C288.846 28.4507 287.564 27.9157 285.841 27.9157C284.137 27.9157 282.86 28.4507 282.009 29.5206C281.156 30.5905 280.731 32.1064 280.731 34.0686V56.5997ZM276.057 56.3615V34.336C276.057 30.9878 276.883 28.3618 278.54 26.4593C280.195 24.5567 282.63 23.6049 285.84 23.6049C289.08 23.6049 291.542 24.5567 293.222 26.4593C294.903 28.3618 295.743 30.9878 295.743 34.336V56.3615C295.743 59.6707 294.902 62.282 293.222 64.1924C291.542 66.1057 289.081 67.0604 285.84 67.0604C282.648 67.0604 280.22 66.1057 278.554 64.1924C276.888 62.282 276.057 59.6707 276.057 56.3615Z" fill="#591413"/>
<path d="M308.516 44.1133L312.053 44.1143C314.09 44.1143 315.614 43.6946 316.623 42.8512C317.632 42.0097 318.136 40.4878 318.136 38.2885V34.1856C318.136 32.2245 317.742 30.7632 316.952 29.8016C316.163 28.8411 314.899 28.3598 313.161 28.3598H308.516V44.1133ZM303.722 66.6464L303.723 24.0217H313.282C316.599 24.0217 319.025 24.8388 320.564 26.4739C322.102 28.108 322.871 30.5406 322.871 33.7708V37.2489C322.871 42.0172 321.092 44.908 317.538 46.0179C319.434 46.5733 320.808 47.5983 321.657 49.0948C322.506 50.5912 322.93 52.528 322.93 54.9059V61.5351C322.93 63.8926 323.201 65.597 323.739 66.6464H318.945C318.406 65.4184 318.136 63.6945 318.136 61.4746V54.7868C318.136 52.4684 317.616 50.8333 316.578 49.8825C315.539 48.9308 313.972 48.4554 311.873 48.4554H308.516V66.6464H303.722Z" fill="#591413"/>
<path d="M330.646 56.4211V53.9826H335.14V56.6593C335.14 60.7221 336.818 62.7526 340.175 62.7526C343.531 62.7526 345.208 60.7221 345.208 56.6593C345.208 55.3912 344.944 54.2022 344.414 53.0923C343.884 51.9824 343.202 51.0023 342.361 50.1501C341.522 49.2989 340.588 48.4594 339.56 47.6375C338.53 46.8155 337.507 45.9633 336.489 45.0808C335.47 44.1994 334.541 43.2681 333.702 42.287C332.864 41.306 332.178 40.1277 331.649 38.7494C331.119 37.373 330.855 35.8716 330.855 34.2472C330.855 30.9127 331.648 28.2623 333.237 26.3988C334.825 24.5372 337.197 23.606 340.353 23.606C343.53 23.606 345.917 24.547 347.515 26.4291C349.113 28.3111 349.912 30.9175 349.912 34.2472V35.406H345.387V34.0081C345.387 29.9462 343.748 27.9158 340.473 27.9158C337.196 27.9158 335.557 29.9277 335.557 33.9495C335.557 35.2381 335.822 36.4417 336.353 37.5614C336.881 38.681 337.57 39.667 338.42 40.5182C339.268 41.3704 340.207 42.2089 341.236 43.0309C342.264 43.8528 343.293 44.705 344.323 45.5875C345.351 46.469 346.291 47.4002 347.139 48.3803C347.988 49.3624 348.677 50.5416 349.207 51.919C349.736 53.2963 350 54.7977 350 56.4221C350 59.7313 349.182 62.3328 347.544 64.2236C345.906 66.1174 343.488 67.0614 340.292 67.0614C337.095 67.0614 334.689 66.1223 333.07 64.2383C331.452 62.3562 330.643 59.7498 330.643 56.4211H330.646Z" fill="#591413"/>
<path d="M33.3374 19.5402V15.5886H4.63708V74.2099L33.3374 74.3954V71.2218H37.9676V79L0 78.755L0.0039364 10.9967H37.9685V19.5402H33.3374Z" fill="#591413"/>
<path fill-rule="evenodd" clip-rule="evenodd" d="M25.5197 42.7107H30.1311V47.285H25.5197V42.7107Z" fill="#591413"/>
<path d="M40.4268 71.7225V2.33501L0 9.11065V7.11046L42.4196 0V71.7225H40.4268Z" fill="#591413"/>
<path fill-rule="evenodd" clip-rule="evenodd" d="M33.3374 16.8157H37.9676V73.5978H33.3374V16.8157Z" fill="#591413"/>
<path fill-rule="evenodd" clip-rule="evenodd" d="M248.75 56.3615V34.336C248.75 30.9878 249.577 28.3618 251.234 26.4593C252.889 24.5567 255.323 23.6049 258.535 23.6049C261.775 23.6049 264.236 24.5567 265.917 26.4593C267.597 28.3618 268.437 30.9878 268.437 34.336V56.3615C268.437 59.6707 267.597 62.282 265.917 64.1924C264.236 66.1057 261.775 67.0604 258.535 67.0604C255.343 67.0604 252.915 66.1057 251.25 64.1924C249.582 62.282 248.75 59.6707 248.75 56.3615ZM254.702 61.1623C253.85 60.1032 253.424 58.5823 253.424 56.5997V34.0686C253.424 32.1064 253.85 30.5905 254.702 29.5206C255.552 28.4507 256.829 27.9157 258.534 27.9157C260.256 27.9157 261.538 28.4507 262.381 29.5206C263.221 30.5905 263.641 32.1064 263.641 34.0686V56.5997C263.641 60.7016 261.939 62.7515 258.534 62.7515C256.83 62.7515 255.553 62.2224 254.702 61.1623Z" fill="#591413"/>
</svg>
